name Walk6.mot
datacolumns 19
datarows 10
range 2.37000000 2.37900000
endheader

                time	   L_ground_force_vx	   L_ground_force_vy	   L_ground_force_vz	   L_ground_force_px	   L_ground_force_py	   L_ground_force_pz	   R_ground_force_vx	   R_ground_force_vy	   R_ground_force_vz	   R_ground_force_px	   R_ground_force_py	   R_ground_force_pz	   L_ground_torque_x	   L_ground_torque_y	   L_ground_torque_z	   R_ground_torque_x	   R_ground_torque_y	   R_ground_torque_z	
          2.37000000	         15.12130084	        714.28928117	         32.72990411	         -0.17712518	          0.00000000	         -0.03445763	          0.00000000	          0.00000000	          0.00000000	          0.00000000	          0.00000000	          0.00000000	          0.00000000	          0.69533495	          0.00000000	          0.00000000	          0.00000000	          0.00000000	
          2.37100000	         15.76857193	        716.10766877	         33.15165290	         -0.17683474	          0.00000000	         -0.03438263	          0.00000000	          0.00000000	          0.00000000	          0.00000000	          0.00000000	          0.00000000	          0.00000000	          0.74344124	          0.00000000	          0.00000000	          0.00000000	          0.00000000	
          2.37200000	         16.44364590	        717.95866530	         33.48909668	         -0.17656204	          0.00000000	         -0.03431628	          0.00000000	          0.00000000	          0.00000000	          0.00000000	          0.00000000	          0.00000000	          0.00000000	          0.77488196	          0.00000000	          0.00000000	          0.00000000	          0.00000000	
          2.37300000	         17.14059379	        719.83702015	         33.75279071	         -0.17629800	          0.00000000	         -0.03429591	          0.00000000	          0.00000000	          0.00000000	          0.00000000	          0.00000000	          0.00000000	          0.00000000	          0.77709749	          0.00000000	          0.00000000	          0.00000000	          0.00000000	
          2.37400000	         17.85289312	        721.72586974	         33.97620537	         -0.17604056	          0.00000000	         -0.03434924	          0.00000000	          0.00000000	          0.00000000	          0.00000000	          0.00000000	          0.00000000	          0.00000000	          0.74598638	          0.00000000	          0.00000000	          0.00000000	          0.00000000	
          2.37500000	         18.57439846	        723.61292442	         34.19945877	         -0.17580167	          0.00000000	         -0.03447482	          0.00000000	          0.00000000	          0.00000000	          0.00000000	          0.00000000	          0.00000000	          0.00000000	          0.69118819	          0.00000000	          0.00000000	          0.00000000	          0.00000000	
          2.37600000	         19.30074479	        725.48348797	         34.44745711	         -0.17558959	          0.00000000	         -0.03462518	          0.00000000	          0.00000000	          0.00000000	          0.00000000	          0.00000000	          0.00000000	          0.00000000	          0.63618592	          0.00000000	          0.00000000	          0.00000000	          0.00000000	
          2.37700000	         20.01627632	        727.31836263	         34.71299297	         -0.17539151	          0.00000000	         -0.03474527	          0.00000000	          0.00000000	          0.00000000	          0.00000000	          0.00000000	          0.00000000	          0.00000000	          0.60748593	          0.00000000	          0.00000000	          0.00000000	          0.00000000	
          2.37800000	         20.69743795	        729.10900094	         34.96881047	         -0.17518326	          0.00000000	         -0.03481898	          0.00000000	          0.00000000	          0.00000000	          0.00000000	          0.00000000	          0.00000000	          0.00000000	          0.61445650	          0.00000000	          0.00000000	          0.00000000	          0.00000000	
          2.37900000	         21.33463786	        730.86668302	         35.19942546	         -0.17494757	          0.00000000	         -0.03485222	          0.00000000	          0.00000000	          0.00000000	          0.00000000	          0.00000000	          0.00000000	          0.00000000	          0.64491145	          0.00000000	          0.00000000	          0.00000000	          0.00000000	
